<?xml version="1.0" standalone="no"?>
<!DOCTYPE svg PUBLIC "-//W3C//DTD SVG 1.1//EN" "http://www.w3.org/Graphics/SVG/1.1/DTD/svg11.dtd" >
<svg xmlns="http://www.w3.org/2000/svg">
<metadata>Generated by IcoMoon</metadata>
<defs>
<font id="ib-cpanel" horiz-adv-x="1024">
<font-face units-per-em="1024" ascent="960" descent="-64" />
<missing-glyph horiz-adv-x="1024" />
<glyph unicode="&#x20;" horiz-adv-x="512" d="" />
<glyph unicode="&#xe900;" glyph-name="bubble-comment-tw" d="M951.406 590.404c0.020 195.268-210.159 353.599-469.407 353.599s-469.387-158.331-469.407-353.619c0-89.394 44.132-170.983 116.767-233.255l-109.162-218.274c-4.907-9.834-0.889-13.861 8.954-8.954l269.862 134.756c56.235-17.959 118.056-27.883 182.976-27.883 259.258 0 469.417 158.311 469.417 353.629zM112.529 590.374c0.010 137.514 169.204 253.691 369.469 253.691 103.825 0 200.365-29.642 271.8-83.468 62.991-47.45 97.669-107.883 97.669-170.194 0-137.514-169.214-253.691-369.499-253.691-200.255 0-369.439 116.168-369.439 253.661zM930.269 109.314c50.479 43.273 81.14 99.988 81.14 162.129 0 50.129-19.968 96.72-54.166 135.585-14.212-22.536-31.131-44.042-50.599-64.34 15.85-21.716 24.805-45.931 24.805-71.246 0-89.894-112.78-165.836-246.296-165.836-81.789 0-155.743 28.522-200.814 71.265-0.799-0.010-1.579-0.050-2.378-0.050-34.588 0-68.707 2.568-101.967 7.585 46.651-92.772 165.637-158.751 305.159-158.751 45.112 0 88.085 6.896 127.171 19.368l182.116-90.933c9.834-4.907 13.861-0.889 8.944 8.954l-73.114 146.269z" />
<glyph unicode="&#xe901;" glyph-name="arrow" d="M1024 655.978l-96.007 96.017-417.203-417.234-414.773 417.234-96.017-96.017 512.005-511.974z" />
<glyph unicode="&#xe902;" glyph-name="download" d="M231.359-65.516c-103.248 0.188-160.308 54.802-164.171 157.208-0.887 23.444-1.291 46.948-0.614 70.391 0.929 31.98 21.988 52.728 49.546 50.314 27.646-2.414 46.894-26.311 45.425-56.291-1.038-21.149-4.047-42.452-2.542-63.421 2.991-41.675 22.178-59.335 63.927-62.545 8.902-0.679 384.496-1.081 563.344-1.228 54.545-0.050 72.058 15.644 76.004 70.425 1.354 18.808-1.511 37.882-1.368 56.824 0.258 34.39 19.276 55.726 49.147 56.291 27.266 0.512 45.658-20.304 46.76-53.582 0.671-20.103 1.115-40.233 0.889-60.342-1.1-100.035-63.278-163.037-162.972-163.839-93.886-0.748-469.478-0.375-563.372-0.203zM846.848 617.515c-37.498 36.912-88.42 34.002-130.093-8.406-37.591-38.249-123.329-119.416-123.329-119.416 0 11.825 0.817 262.577 0.441 372.168-0.168 48.284-20.402 81.468-55.607 94.258-9.495 3.449-18.995 5.26-28.259 5.616v0.026c-0.077-0.002-0.157-0.009-0.234-0.012-0.077 0.003-0.157 0.009-0.234 0.012v-0.026c-9.268-0.356-18.764-2.165-28.259-5.616-35.205-12.789-55.441-45.975-55.607-94.258-0.376-109.591 0.441-360.343 0.441-372.168 0 0-85.738 81.166-123.329 119.416-41.675 42.408-92.597 45.316-130.093 8.406-35.868-35.311-33.363-86.312 7.599-127.548 88.235-88.827 176.667-177.468 265.69-265.507 19.9-19.682 41.806-30.050 63.558-30.952v-0.032c0.077 0.003 0.157 0.012 0.234 0.015 0.077-0.003 0.157-0.012 0.234-0.015v0.032c21.749 0.902 43.66 11.269 63.557 30.952 89.023 88.039 177.455 176.678 265.69 265.507 40.963 41.237 43.467 92.238 7.601 127.548z" />
<glyph unicode="&#xe903;" glyph-name="search" d="M594.836 960v0c-235.615 0-426.685-191.074-426.685-426.685 0-74.139 18.925-143.842 52.208-204.589l-194.762-194.755c-34.125-34.129-34.125-89.968 0-124.101l48.262-48.28c34.136-34.125 89.99-34.125 124.122 0l195.398 195.546c60.014-32.198 128.595-50.488 201.456-50.488 235.611 0 426.688 191.052 426.688 426.67 0 235.607-191.077 426.681-426.688 426.681zM594.836 809.234c152.348 0 275.901-123.574 275.901-275.915 0-152.348-123.552-275.89-275.901-275.89-152.363 0-275.901 123.541-275.901 275.89 0 152.341 123.538 275.915 275.901 275.915v0z" />
<glyph unicode="&#xe904;" glyph-name="check" d="M341.034 210.252l603.722 603.722 80.142-80.142-683.858-683.858-317.89 317.89 80.142 80.142z" />
<glyph unicode="&#xe905;" glyph-name="close" d="M98.015 960l-96.017-96.007 417.234-417.203-417.234-414.773 96.017-96.017 511.974 512.005zM925.985-64l96.017 96.007-417.234 417.203 417.234 414.773-96.017 96.017-511.974-512.005z" />
<glyph unicode="&#xe906;" glyph-name="engranes" d="M645.323 336.231c1.412 11.652 2.13 23.455 2.145 35.199 0.017 11.715-0.676 23.541-2.065 35.216 12.834 4.572 25.676 9.508 38.286 14.745l7.688 3.229-1.466 8.205c-4.232 23.169-10.907 45.903-19.825 67.536l-3.169 7.813-8.324-1.469c-13.325-2.306-26.73-4.984-39.961-7.972-10.258 21.351-23.072 41.393-38.182 59.736 8.21 10.656 16.185 21.558 23.779 32.509l4.712 6.877-5.723 6.086c-16.107 17.12-34.043 32.626-53.301 46.067l-6.907 4.823-6.185-5.681c-9.687-8.847-19.278-18.045-28.564-27.418-20.451 12.753-42.336 22.95-65.237 30.379 1.048 12.908 1.781 25.926 2.19 38.857l0.233 8.321-8.131 2.053c-22.805 5.707-46.343 9.088-70.007 10.023l-8.452 0.304-2.056-8.097c-3.178-12.124-6.109-24.532-8.73-36.934-24.526-0.233-48.831-3.445-72.411-9.576-5.921 10.977-12.129 21.879-18.517 32.495l-4.348 7.188-7.946-2.691c-22.314-7.429-43.98-17.244-64.354-29.152l-7.293-4.217 2.613-8.017c3.772-11.445 7.872-22.997 12.226-34.412-20.701-13.533-39.581-29.55-56.288-47.749-10.604 5.845-21.342 11.459-32.007 16.731l-7.557 3.752-5.265-6.546c-14.816-18.343-27.715-38.215-38.34-59.046l-3.809-7.466 6.521-5.288c9.136-7.429 18.577-14.754 28.146-21.839-10.101-22.734-17.233-46.601-21.274-71.158-11.831-0.793-23.7-1.837-35.4-3.155l-8.333-0.957-0.869-8.298c-2.431-23.257-2.457-46.857-0.085-70.128l0.846-8.273 8.369-0.997c11.609-1.326 23.467-2.423 35.349-3.237 3.976-24.558 11.050-48.452 21.099-71.203-9.555-7.046-19.002-14.345-28.147-21.723l-6.614-5.291 3.817-7.501c10.569-20.863 23.416-40.742 38.218-59.171l5.317-6.565 7.466 3.755c10.656 5.234 21.413 10.826 32.066 16.671 16.674-18.253 35.511-34.31 56.175-47.896-4.388-11.408-8.515-22.945-12.3-34.36l-2.675-7.966 7.282-4.285c20.425-11.976 42.071-21.854 64.212-29.283l7.975-2.78 4.45 7.219c6.359 10.519 12.593 21.396 18.576 32.447 23.57-6.201 47.868-9.469 72.399-9.753 2.599-12.456 5.493-24.839 8.619-36.882l2.005-8.047 8.537 0.153c23.634 0.897 47.183 4.215 69.943 9.858l8.29 1.989-0.304 8.398c-0.377 12.913-1.079 25.936-2.096 38.828 22.91 7.378 44.812 17.514 65.314 30.226 9.29-9.423 18.855-18.633 28.51-27.522l6.175-5.64 6.903 4.797c19.272 13.377 37.241 28.822 53.466 45.982l5.646 6.049-4.689 6.921c-7.56 10.951-15.501 21.853-23.668 32.521 15.145 18.275 27.994 38.288 38.32 59.632 13.195-3.019 26.594-5.72 39.944-8.071l8.264-1.451 3.232 7.733c8.986 21.671 15.717 44.395 19.996 67.498l1.556 8.267-7.787 3.218c-12.556 5.265-25.381 10.221-38.215 14.845zM552.226 371.532c-0.131-110.203-90.425-199.855-201.286-199.855h-0.241c-110.983 0.125-201.173 89.982-201.039 200.329 0.134 110.203 90.428 199.858 201.278 199.858h0.247c53.678-0.065 104.171-20.959 142.189-58.844 38.019-37.882 58.91-88.13 58.852-141.488zM984.996 641.631c0.835 6.903 1.261 13.893 1.269 20.848 0.013 6.941-0.401 13.942-1.218 20.86 7.605 2.712 15.205 5.632 22.677 8.736l4.555 1.911-0.869 4.859c-2.509 13.723-6.461 27.187-11.74 40.002l-1.88 4.629-4.927-0.871c-7.891-1.365-15.833-2.951-23.671-4.72-6.075 12.649-13.663 24.518-22.618 35.383 4.865 6.31 9.585 12.769 14.086 19.253l2.792 4.072-3.391 3.604c-9.539 10.139-20.163 19.329-31.575 27.288l-4.093 2.86-3.664-3.367c-5.737-5.239-11.417-10.69-16.918-16.237-12.115 7.553-25.077 13.595-38.644 17.994 0.622 7.645 1.054 15.353 1.298 23.015l0.139 4.927-4.817 1.213c-13.507 3.382-27.448 5.385-41.466 5.938l-5.007 0.182-1.215-4.797c-1.883-7.182-3.621-14.529-5.172-21.879-14.524-0.139-28.926-2.041-42.889-5.671-3.507 6.501-7.185 12.961-10.968 19.249l-2.576 4.257-4.709-1.599c-13.217-4.402-26.051-10.213-38.118-17.267l-4.323-2.496 1.547-4.745c2.235-6.779 4.666-13.623 7.241-20.383-12.259-8.014-23.444-17.5-33.344-28.28-6.279 3.462-12.644 6.788-18.96 9.912l-4.479 2.223-3.118-3.879c-8.775-10.866-16.418-22.635-22.711-34.974l-2.255-4.422 3.861-3.133c5.413-4.402 11.005-8.739 16.674-12.935-5.984-13.464-10.205-27.6-12.598-42.148-7.007-0.469-14.038-1.091-20.969-1.866l-4.936-0.568-0.511-4.913c-1.44-13.771-1.454-27.755-0.048-41.536l0.506-4.901 4.956-0.585c6.877-0.787 13.899-1.437 20.939-1.917 2.354-14.547 6.543-28.698 12.496-42.174-5.657-4.173-11.258-8.497-16.674-12.868l-3.916-3.133 2.261-4.442c6.259-12.36 13.871-24.134 22.637-35.048l3.152-3.888 4.422 2.223c6.31 3.101 12.683 6.409 18.993 9.872 9.875-10.812 21.036-20.32 33.273-28.369-2.599-6.756-5.044-13.589-7.287-20.348l-1.585-4.719 4.311-2.536c12.101-7.094 24.921-12.945 38.036-17.344l4.72-1.65 2.638 4.277c3.769 6.228 7.458 12.675 11.002 19.221 13.961-3.675 28.354-5.606 42.884-5.777 1.542-7.375 3.255-14.711 5.106-21.848l1.187-4.768 5.055 0.091c14.001 0.533 27.948 2.493 41.432 5.837l4.907 1.182-0.182 4.976c-0.221 7.651-0.639 15.361-1.241 22.997 13.569 4.371 26.542 10.377 38.686 17.903 5.499-5.58 11.167-11.037 16.887-16.301l3.655-3.341 4.090 2.843c11.414 7.921 22.058 17.069 31.669 27.236l3.343 3.584-2.775 4.095c-4.479 6.487-9.182 12.942-14.021 19.264 8.972 10.826 16.58 22.68 22.7 35.322 7.813-1.786 15.753-3.391 23.657-4.78l4.896-0.861 1.911 4.581c5.325 12.834 9.312 26.295 11.843 39.978l0.923 4.899-4.615 1.909c-7.423 3.107-15.018 6.044-22.623 8.778zM929.849 662.542c-0.074-65.274-53.559-118.379-119.226-118.379h-0.143c-65.742 0.071-119.157 53.298-119.077 118.657 0.077 65.274 53.562 118.385 119.222 118.385h0.145c31.794-0.039 61.704-12.415 84.225-34.854 22.518-22.439 34.895-52.202 34.855-83.811z" />
<glyph unicode="&#xe907;" glyph-name="bell" d="M719.085 340.263c-31.314 136.626-6.474 364.903-207.088 364.903-200.604 0-175.754-228.277-207.079-364.903-6.18-26.977-24.967-47.016-45.878-62.598-26.836-20.012-43.247-52.79-43.322-88.852v-0.247l592.581 0.247c-0.080 36.057-16.495 68.84-43.331 88.852-20.907 15.582-39.698 35.621-45.883 62.598v0zM602.872 150.853h-181.738c10.187-40.699 47.007-70.851 90.861-70.851 43.872-0.004 80.693 30.142 90.88 70.851v0zM552.031 739.946c11.074-1.697 21.877-4.174 32.346-7.502 0.476 3.412 0.736 6.888 0.736 10.434 0.004 40.382-32.725 73.12-73.12 73.12-40.376 0-73.107-32.738-73.107-73.116 0-3.548 0.264-7.026 0.747-10.434 10.46 3.328 21.26 5.801 32.333 7.502-0.066 0.974-0.11 1.944-0.11 2.936 0 22.168 17.974 40.144 40.139 40.144 22.177 0 40.148-17.974 40.148-40.144 0-0.996-0.035-1.97-0.11-2.94v0zM254.565 402.178c-16.552 16.552-26.792 39.425-26.792 64.687s10.24 48.127 26.792 64.687l-29.405 29.405c-24.076-24.081-38.973-57.348-38.973-94.089 0-36.745 14.895-70.017 38.973-94.093l29.405 29.401zM195.757 343.371c-31.605 31.61-51.155 75.267-51.155 123.498 0 48.224 19.549 91.889 51.155 123.495l-29.405 29.405c-39.134-39.134-63.33-93.185-63.33-152.9s24.204-113.769 63.33-152.9l29.401 29.405zM136.953 284.568c-46.655 46.655-75.509 111.104-75.509 182.306 0 71.196 28.853 135.643 75.509 182.302l-29.405 29.405c-54.176-54.183-87.688-129.036-87.688-211.708 0-82.676 33.519-157.524 87.693-211.703l29.405 29.405zM769.441 531.553c16.548-16.556 26.783-39.43 26.783-64.687 0-25.265-10.24-48.131-26.783-64.687l29.393-29.405c24.090 24.081 38.976 57.348 38.976 94.093 0 36.742-14.892 70.012-38.976 94.089l-29.393-29.401zM828.245 590.358c31.605-31.605 51.155-75.267 51.155-123.495 0-48.232-19.549-91.894-51.155-123.498l29.406-29.405c39.121 39.134 63.33 93.185 63.33 152.9 0 59.711-24.209 113.766-63.33 152.892l-29.406-29.401zM962.564 466.87c0-71.196-28.853-135.647-75.52-182.306l29.41-29.405c54.176 54.179 87.687 129.027 87.687 211.708 0 82.673-33.51 157.524-87.687 211.703l-29.41-29.405c46.663-46.654 75.52-111.104 75.52-182.302z" />
<glyph unicode="&#xe908;" glyph-name="padlock" d="M787.056 600.417h-15.877c3.381 27.254 5.168 58.715 5.168 95.256-0.004 145.967-118.364 264.327-264.35 264.327-145.975 0-264.339-118.36-264.339-264.327 0-36.399 1.429-67.768 3.988-95.256h-14.712c-31.553 0-57.144-25.594-57.144-57.155v-550.107c0-31.573 25.59-57.155 57.147-57.155h550.118c31.561 0 57.155 25.582 57.155 57.155v550.107c0 31.561-25.594 57.155-57.155 57.155zM544.153 248.941v-165.329h-64.306v165.329c-39.376 13.448-67.868 50.343-67.868 94.272 0 55.257 44.775 100.028 100.017 100.028 55.249 0 100.024-44.771 100.024-100.028 0-43.93-28.495-80.824-67.868-94.272zM669.987 600.417h-318.597c-2.198 25.456-3.354 56.832-3.354 95.256 0 90.553 73.404 163.965 163.961 163.965 90.564 0 163.992-73.408 163.992-163.965 0-40.007-2.129-71.018-6.002-95.256z" />
<glyph unicode="&#xe909;" glyph-name="pc" d="M426.666 640v-234.665l49.565 82.588 75.644-131.795 45.459 27.875-73.332 128.003h94.666l-192 128.003zM938.668 746.665c0 47.124-38.213 85.33-85.33 85.33h-682.67c-47.124 0-85.33-38.205-85.33-85.33v-554.669h853.337v554.669zM853.336 298.661c0-11.787-9.539-21.332-21.332-21.332h-640.005c-11.794 0-21.332 9.539-21.332 21.332v426.672c0 11.794 9.539 21.332 21.332 21.332h640.005c11.794 0 21.332-9.539 21.332-21.332v-426.672zM597.33 149.33v-21.332c0-11.771-9.553-21.332-21.332-21.332h-128.003c-11.779 0-21.332 9.563-21.332 21.332v21.332h-426.665c0 0 0-19.084 0-42.665s19.106-42.66 42.665-42.66h938.671c23.566 0 42.665 19.084 42.665 42.66 0 23.588 0 42.665 0 42.665h-426.672zM917.336 79.996c-14.728 0-26.669 11.939-26.669 26.669s11.939 26.669 26.669 26.669c14.728 0 26.669-11.939 26.669-26.669-0.008-14.723-11.939-26.669-26.669-26.669z" />
<glyph unicode="&#xe90a;" glyph-name="cloud" d="M817.063 588.607c-33.132 0-64.26-9.235-91.214-25.337-33.242 82.748-110.47 140.748-200.452 140.748-107.997 0-197.605-83.523-214.851-193.117-15.385 6.552-32.122 10.264-49.695 10.264-71.779 0-130.179-60.123-133.486-135.565-4.965 0.894-10.040 1.449-15.241 1.449-50.666 0-91.736-43.658-91.736-97.52 0-53.867 41.066-97.531 91.74-97.531 0.904 0 1.784 0.12 2.674 0.152v-0.152h385.147v159.417l-55.067-55.043c-13.321-13.359-34.951-13.359-48.282 0-13.337 13.305-13.352 34.932 0 48.291l113.617 113.614c0.466 0.428 0.984 0.728 1.432 1.144 1.251 1.085 2.501 2.152 3.832 3.064 0.575 0.376 1.206 0.616 1.788 0.913 1.352 0.804 2.712 1.589 4.12 2.126 0.728 0.312 1.487 0.44 2.227 0.665 1.322 0.428 2.664 0.92 4.040 1.187 0.936 0.173 1.896 0.173 2.866 0.264 1.176 0.136 2.374 0.344 3.56 0.344 1.206 0 2.362-0.2 3.576-0.344 0.984-0.088 1.944-0.088 2.873-0.264 1.368-0.264 2.745-0.759 4.105-1.194 0.712-0.218 1.449-0.376 2.152-0.664 1.449-0.556 2.856-1.386 4.248-2.171 0.536-0.312 1.096-0.536 1.634-0.856 1.405-0.939 2.693-2.055 3.96-3.166 0.447-0.408 0.913-0.676 1.322-1.059v0.008l113.636-113.617c13.333-13.359 13.333-34.986 0-48.291-13.333-13.359-34.954-13.359-48.282 0l-55.083 55.043v-159.417h261.857v0.548c96.926 7.091 173.535 92.877 173.535 197.752 0.008 109.533-83.516 198.319-186.545 198.319z" />
<glyph unicode="&#xe90b;" glyph-name="saved" d="M511.999-64c-136.761 0-265.334 53.257-362.039 149.96-96.703 96.707-149.96 225.28-149.96 362.041 0 136.759 53.257 265.334 149.962 362.039 96.703 96.703 225.278 149.96 362.037 149.96s265.334-53.257 362.039-149.96c96.705-96.705 149.962-225.28 149.962-362.039s-53.257-265.334-149.962-362.039c-96.705-96.705-225.278-149.962-362.039-149.962zM511.999 894.864c-246.4 0-446.863-200.462-446.863-446.863s200.464-446.863 446.863-446.863 446.863 200.462 446.863 446.863-200.462 446.863-446.863 446.863zM715.624 658.003l-275.613-275.615-131.637 131.637-92.556-92.556 224.193-224.195 368.169 368.171z" />
<glyph unicode="&#xe90c;" glyph-name="checked" d="M331.721-16c0 0 261.64 739.594 690.651 928 0 0-459.622-72.105-707.21-533.902l-136.914 225.214-176.622-96.209 330.093-523.103z" />
<glyph unicode="&#xe90d;" glyph-name="edit" d="M511.515 263.292l-185.29-1.067 1.071 185.29 512.485 512.485 184.219-184.222zM817.868 506.555v-481.333h-728.646v550.801h177.848v177.848h303.488l89.222 89.222h-392.71l-267.071-267.071v-640.023h907.090v659.781z" />
<glyph unicode="&#xe90e;" glyph-name="image" d="M959.884 832c0.040-0.034 0.082-0.076 0.116-0.116v-767.77c-0.034-0.040-0.076-0.082-0.116-0.116h-895.77c-0.040 0.034-0.082 0.076-0.114 0.116v767.772c0.034 0.040 0.076 0.082 0.114 0.114h895.77zM960 896h-896c-35.2 0-64-28.8-64-64v-768c0-35.2 28.8-64 64-64h896c35.2 0 64 28.8 64 64v768c0 35.2-28.8 64-64 64v0zM832 672c0-53.020-42.98-96-96-96s-96 42.98-96 96 42.98 96 96 96 96-42.98 96-96zM896 128h-768v128l224 384 256-320h64l224 192z" />
<glyph unicode="&#xe90f;" glyph-name="list" d="M0 960v-256h1024v256h-1024zM0 320h1024v256h-1024v-256zM0-64h1024v256h-1024v-256z" />
<glyph unicode="&#xe910;" glyph-name="building" d="M989.288 912.001h-556.238c-22.537 0-40.979-18.441-40.979-40.979v-887.021h638.189v887.021c0 22.537-18.436 40.979-40.973 40.979zM645.785 213.302c0-2.662-2.157-4.824-4.824-4.824h-116.534c-2.656 0-4.819 2.157-4.819 4.824v116.534c0 2.662 2.162 4.819 4.819 4.819h116.534c2.667 0 4.824-2.152 4.824-4.819v-116.534zM645.785 421.263c0-2.662-2.157-4.824-4.824-4.824h-116.534c-2.656 0-4.819 2.157-4.819 4.824v116.523c0 2.667 2.162 4.824 4.819 4.824h116.534c2.667 0 4.824-2.152 4.824-4.824v-116.523zM645.785 629.209c0-2.662-2.157-4.819-4.824-4.819h-116.534c-2.656 0-4.819 2.157-4.819 4.819v116.538c0 2.662 2.162 4.824 4.819 4.824h116.534c2.667 0 4.824-2.162 4.824-4.824v-116.538zM902.719 213.302c0-2.662-2.162-4.824-4.824-4.824h-116.528c-2.667 0-4.824 2.157-4.824 4.824v116.534c0 2.662 2.157 4.819 4.824 4.819h116.528c2.662 0 4.824-2.152 4.824-4.819v-116.534zM902.719 421.263c0-2.662-2.162-4.824-4.824-4.824h-116.528c-2.667 0-4.824 2.157-4.824 4.824v116.523c0 2.667 2.157 4.824 4.824 4.824h116.528c2.662 0 4.824-2.152 4.824-4.824v-116.523zM902.719 629.209c0-2.662-2.162-4.819-4.824-4.819h-116.528c-2.667 0-4.824 2.157-4.824 4.819v116.538c0 2.662 2.157 4.824 4.824 4.824h116.528c2.662 0 4.824-2.162 4.824-4.824v-116.538zM340.522 522.866h-322.987c-13.085 0-23.798-10.711-23.798-23.796v-515.072h370.583v515.072c0 13.085-10.711 23.796-23.796 23.796zM141.058 117.155c0-1.547-1.249-2.803-2.8-2.803h-67.668c-1.542 0-2.8 1.259-2.8 2.803v67.663c0 1.547 1.259 2.8 2.8 2.8h67.668c1.553 0 2.8-1.254 2.8-2.8v-67.663zM141.058 237.906c0-1.547-1.249-2.8-2.8-2.8h-67.668c-1.542 0-2.8 1.254-2.8 2.8v67.673c0 1.542 1.259 2.8 2.8 2.8h67.668c1.553 0 2.8-1.259 2.8-2.8v-67.673zM141.058 358.661c0-1.547-1.249-2.8-2.8-2.8h-67.668c-1.542 0-2.8 1.254-2.8 2.8v67.668c0 1.547 1.259 2.8 2.8 2.8h67.668c1.553 0 2.8-1.254 2.8-2.8v-67.668zM290.255 117.155c0-1.547-1.259-2.803-2.8-2.803h-67.668c-1.553 0-2.803 1.259-2.803 2.803v67.663c0 1.547 1.259 2.8 2.803 2.8h67.668c1.542 0 2.8-1.254 2.8-2.8v-67.663zM290.255 237.906c0-1.547-1.259-2.8-2.8-2.8h-67.668c-1.553 0-2.803 1.254-2.803 2.8v67.673c0 1.542 1.259 2.8 2.803 2.8h67.668c1.542 0 2.8-1.259 2.8-2.8v-67.673zM290.255 358.661c0-1.547-1.259-2.8-2.8-2.8h-67.668c-1.553 0-2.803 1.254-2.803 2.8v67.668c0 1.547 1.259 2.8 2.803 2.8h67.668c1.542 0 2.8-1.254 2.8-2.8v-67.668z" />
<glyph unicode="&#xe911;" glyph-name="graphic" d="M221.768 164.654c0 29.050-23.747 52.94-52.94 52.94h-100.948c-29.011 0-52.795-23.892-52.795-52.94v-111.79c0-29.078 23.799-52.862 52.795-52.862h100.948c29.208 0 52.94 23.799 52.94 52.862v111.79zM484.44 403.971c0 29.104-23.654 52.888-52.822 52.888h-100.974c-29.078 0-52.795-23.799-52.795-52.888v-351.097c0-29.078 23.732-52.862 52.795-52.862h100.974c29.182 0 52.822 23.799 52.822 52.862v351.097zM1023.463 512.756c0 30.691-25.085 55.762-55.803 55.762h-95c-30.717 0-55.855-25.074-55.855-55.762v-456.941c0-30.743 25.137-55.818 55.855-55.818h95c30.717 0 55.803 25.074 55.803 55.818v456.941zM747.176 295.176c0 29.167-23.706 52.955-52.877 52.955h-101.011c-28.996 0-52.795-23.799-52.795-52.955v-242.312c0-29.078 23.799-52.862 52.795-52.862h101.011c29.182 0 52.877 23.799 52.877 52.862v242.312zM981.154 896.001l-201.119-21.937 66.357-66.372-218.275-266.584-226.271 209.297c-15.554 14.294-39.446 14.454-55.004 0.29l-332.903-300.399c-16.684-15.056-17.944-40.918-2.915-57.639 8.074-8.915 19.23-13.482 30.364-13.482 9.833 0 19.531 3.517 27.357 10.487v0l305.101 275.472 230.747-213.405c8.334-7.574 19.401-11.472 30.546-10.673 11.238 0.695 21.725 6.208 28.721 14.822l240.409 293.875 55.067-54.989 21.818 201.238z" />
<glyph unicode="&#xe912;" glyph-name="grid" d="M0 704h256v256h-256v-256zM384 704h256v256h-256v-256zM768 960v-256h256v256h-256zM0 320h256v256h-256v-256zM384 320h256v256h-256v-256zM768 320h256v256h-256v-256zM0-64h256v256h-256v-256zM384-64h256v256h-256v-256zM768-64h256v256h-256v-256z" />
<glyph unicode="&#xe913;" glyph-name="instagram" horiz-adv-x="878" d="M585.143 448c0 80.571-65.714 146.286-146.286 146.286s-146.286-65.714-146.286-146.286 65.714-146.286 146.286-146.286 146.286 65.714 146.286 146.286zM664 448c0-124.571-100.571-225.143-225.143-225.143s-225.143 100.571-225.143 225.143 100.571 225.143 225.143 225.143 225.143-100.571 225.143-225.143zM725.714 682.286c0-29.143-23.429-52.571-52.571-52.571s-52.571 23.429-52.571 52.571 23.429 52.571 52.571 52.571 52.571-23.429 52.571-52.571zM438.857 808c-64 0-201.143 5.143-258.857-17.714-20-8-34.857-17.714-50.286-33.143s-25.143-30.286-33.143-50.286c-22.857-57.714-17.714-194.857-17.714-258.857s-5.143-201.143 17.714-258.857c8-20 17.714-34.857 33.143-50.286s30.286-25.143 50.286-33.143c57.714-22.857 194.857-17.714 258.857-17.714s201.143-5.143 258.857 17.714c20 8 34.857 17.714 50.286 33.143s25.143 30.286 33.143 50.286c22.857 57.714 17.714 194.857 17.714 258.857s5.143 201.143-17.714 258.857c-8 20-17.714 34.857-33.143 50.286s-30.286 25.143-50.286 33.143c-57.714 22.857-194.857 17.714-258.857 17.714zM877.714 448c0-60.571 0.571-120.571-2.857-181.143-3.429-70.286-19.429-132.571-70.857-184s-113.714-67.429-184-70.857c-60.571-3.429-120.571-2.857-181.143-2.857s-120.571-0.571-181.143 2.857c-70.286 3.429-132.571 19.429-184 70.857s-67.429 113.714-70.857 184c-3.429 60.571-2.857 120.571-2.857 181.143s-0.571 120.571 2.857 181.143c3.429 70.286 19.429 132.571 70.857 184s113.714 67.429 184 70.857c60.571 3.429 120.571 2.857 181.143 2.857s120.571 0.571 181.143-2.857c70.286-3.429 132.571-19.429 184-70.857s67.429-113.714 70.857-184c3.429-60.571 2.857-120.571 2.857-181.143z" />
<glyph unicode="&#xe914;" glyph-name="bubble" d="M918.225 246.075v608.15h-812.45v-710.3l102.15 102.15h710.3zM918.225 954c54.64 0 99.775-45.135 99.775-99.775v-608.15c0-54.64-45.135-102.15-99.775-102.15h-710.3l-201.925-201.925v912.225c0 54.64 45.135 99.775 99.775 99.775h812.45z" />
<glyph unicode="&#xe915;" glyph-name="view" d="M778.123 192.341h-648.659v389.641h99.865l195.059 128.295h-423.243v-646.276h905.315v297.707l-128.342-79.166zM650.423 832v-185.006c-68.085-7.574-231.443-38.674-346.595-160.958-38.918-41.318-72.494-92.433-94.673-157.289 0 0 41.294 69.927 153.143 122.705 67.724 31.958 161.518 57.267 288.131 57.184v-177.149l372.428 250.163-372.428 250.343z" />
<glyph unicode="&#xe916;" glyph-name="mail" d="M896 800h-768c-70.688 0-128-57.344-128-128v-416c0-70.688 57.312-128 128-128h768c70.688 0 128 57.312 128 128v416c0 70.656-57.312 128-128 128zM64 632l223.968-168-223.968-168v336zM960 256c0-35.328-28.736-64-64-64h-768c-35.296 0-64 28.672-64 64l250.624 188 139.776-104.864c17.056-12.736 37.312-19.2 57.6-19.2 20.256 0 40.512 6.432 57.568 19.2l139.808 104.864 250.624-188zM960 296l-224 168 224 168v-336zM550.368 364.736c-11.168-8.384-24.416-12.8-38.368-12.8s-27.232 4.448-38.4 12.8l-409.6 307.264c0 35.296 28.704 64 64 64h768c35.264 0 64-28.704 64-64l-409.632-307.264z" />
<glyph unicode="&#xe917;" glyph-name="rocket" d="M249.12 357.121l2.951 7.254c4.903 11.616 10.119 23.356 15.946 35.913 23.875 50.902 52.145 100.458 84.501 148.246l-110.587 5.659-192.71-298.001 190.992 78.496c2.913 7.594 5.924 15.119 8.908 22.432zM523.785 181.431c-11.594-7.74-22.4-14.708-33.108-21.346l-6.708-4.038c-6.735-4.049-13.697-8.178-20.8-12.243l-48.145-200.813 264.769 236.315-22.632 108.404c-42.232-39.335-86.809-74.874-133.376-106.279zM793.922 905.042c-7.832-3.789-15.546-7.681-23.194-11.638-33.805-17.481-65.794-36.529-96.182-56.934-84.485-56.864-157.262-123.739-221.278-198.127-63.896-74.48-118.847-156.63-162.089-248.807-5.367-11.557-10.578-23.243-15.589-35.097-4.859-11.994-9.838-23.881-14.324-36.183-3.054-8.151-5.973-16.416-8.838-24.729l168.181-143.998c7.778 4.113 15.492 8.276 23.075 12.557 11.465 6.319 22.448 13.075 33.545 19.724 10.94 6.767 21.686 13.724 32.281 20.805 84.415 56.918 157.116 123.868 220.867 198.478 63.637 74.702 118.512 156.916 161.679 249.147 15.481 33.172 29.373 67.707 41.432 103.815 2.746 8.157 5.4 16.378 7.93 24.702 0.189 0.616 0.357 1.238 0.551 1.859l-146.295 125.252c-0.578-0.281-1.168-0.546-1.751-0.827zM795.306 645.186c-26.21-30.61-72.275-34.183-102.879-7.973-30.61 26.205-34.178 72.275-7.973 102.885 26.216 30.61 72.275 34.178 102.879 7.973 30.621-26.21 34.178-72.275 7.973-102.885zM974.778 966.992c-31.351-5.454-59.323-13.811-86.399-22.913-23.902-8.232-46.751-17.367-68.81-27.178l129.62-110.982c6.292 23.308 11.794 47.297 16.254 72.177 4.822 28.167 8.762 57.086 9.335 88.896zM142.646 158.443c-17.54-21.816-24.043-48.924-20.248-74.588h0.005c4.47 65.777 80.155 24.113 12.519-28.086-82.064-63.334-52.945-126.76-52.945-126.76-9.178 84.464 75.729 111.56 89.199 84.528 13.373-26.81-42.675-43.788-42.675-43.788 71.334-4.919 114.404 44.145 129.414 65.102 6.822 9.578 8.259 0.124 8.486-1.946 1.070-13.308-5.162-21.092-5.162-21.092l-0.005-0.005c11.957 6.011 22.854 14.627 31.789 25.74 33.389 41.529 26.789 102.252-14.74 135.641s-102.247 26.778-135.636-14.746zM290.562 143.302l0.070-0.059-0.751-0.93-0.070 0.054 0.751 0.935z" />
<glyph unicode="&#xe918;" glyph-name="wordpress" d="M915.968 668.8c35.84-65.536 56.32-140.8 56.32-220.8 0-169.792-92.032-318.080-228.864-397.888l140.608 406.528c26.24 65.664 35.008 118.208 35.008 164.864 0 17.28-1.152 33.28-3.072 47.36zM575.488 664.384c27.648 1.28 52.608 4.48 52.608 4.48 24.832 3.2 21.888 39.68-2.88 38.4 0 0-74.88-5.76-122.88-5.76-45.44 0-121.6 6.4-121.6 6.4-24.96 1.28-28.16-36.48-3.2-37.76 0 0 23.040-2.56 48-3.84l71.68-196.48-101.12-302.080-167.616 497.856c27.648 1.28 52.608 4.288 52.608 4.288 24.96 3.2 22.016 39.68-2.816 38.208 0 0-74.496-5.888-122.624-5.888-8.512 0-18.688 0.32-29.44 0.64 83.328 122.752 225.152 205.312 385.792 205.312 119.808 0 228.928-45.76 310.848-120.832-1.92 0.128-3.84 0.384-5.952 0.384-45.248 0-77.312-39.36-77.312-81.664 0-37.952 21.888-70.080 45.184-107.968 17.536-30.72 38.016-70.080 38.016-126.976 0-39.040-15.168-85.12-35.072-148.48l-45.888-152.96-166.4 495.36zM512-12.16c-45.184 0-88.768 6.592-130.048 18.688l138.112 401.28 141.44-387.648c1.024-2.24 2.112-4.352 3.328-6.4-47.808-16.768-99.2-26.048-152.832-26.048zM51.648 448c0 66.752 14.336 130.112 39.872 187.328l219.52-601.6c-153.408 74.624-259.328 232.064-259.328 414.272zM512 960c-282.24 0-512-229.76-512-512s229.76-512 512-512 512 229.76 512 512-229.76 512-512 512z" />
<glyph unicode="&#xe919;" glyph-name="editar" d="M341.516 426.218l-34.063-166.024c-1.859-9.912 6.825-18.597 16.737-16.737l166.034 34.062c2.473 1.331 4.792 2.58 7.265 3.913l357.084 357.094c2.801 2.801 2.801 7.337 0 10.132l-141.919 141.92c-2.801 2.801-7.337 2.801-10.138 0l-357.091-357.094c-1.33-2.479-2.579-4.795-3.91-7.267zM901.108 345.605h-61.439c-11.31 0-20.48-9.165-20.48-20.475v-286.733h-716.791v716.792h235.521c11.315 0 20.485 9.17 20.485 20.48v61.444c0 11.305-9.17 20.475-20.485 20.475h-286.72c-28.278 0-51.2-22.927-51.2-51.199v-819.19c0-28.273 22.922-51.2 51.2-51.2h819.19c28.278 0 51.199 22.927 51.199 51.2v337.93c0 11.31-9.17 20.475-20.48 20.475zM1013.495 848.132l-101.368 101.37c-13.998 13.998-36.685 13.998-50.683 0l-74.843-74.849c-3.999-3.994-3.999-10.476 0-14.479l137.573-137.573c3.999-3.999 10.481-3.999 14.483 0l74.838 74.84c14.004 13.998 14.004 36.699 0 50.692z" />
<glyph unicode="&#xe91a;" glyph-name="user" d="M914.962 203.991l-224.611 99.006c-34.691 15.281-34.971 58.823-35.073 75.784 0 0.209 0 3.018-0.046 3.018 25.532 30.623 45.744 69.313 58.492 113.107 0.538-0.105 1.091-0.199 1.654-0.252 22.953-2.393 46.106 39.176 51.695 92.818 5.071 48.619-6.021 90.509-25.236 99.721-1.952 0.92-4.034 1.786-6.236 1.786-3.744 120.263-102.462 216.657-223.626 216.657-118.329 0-215.222-91.919-223.186-208.252-0.046-0.642-0.421-8.405-0.433-8.405-22.96-2.408-37.053-47.846-31.464-101.506 5.594-53.639 28.745-95.211 51.713-92.818 0.558 0.054 1.109 0.148 1.662 0.252 12.549-43.114 32.331-81.268 57.294-111.675 0.112-0.127 1.193-1.432 1.193-1.432-0.273-14.058 1.878-62.508-35.127-78.804l-224.611-99.006c-25.264-11.129-96.488-43.394-96.488-112.304v-56.563c0-24.612 20.134-44.758 44.747-44.758 303.15 0 606.297 0 909.436 0 24.619 0 44.758 20.129 44.758 44.758v56.563c-0.005 68.91-71.24 101.175-96.506 112.304v0z" />
<glyph unicode="&#xe91b;" glyph-name="pie-grap" d="M1005.813 479.4c-7.293 121.11-58.028 234.499-143.332 319.821-85.338 85.365-198.856 136.2-319.864 143.433l0.058-463.251h463.138zM471.876 931.217c-117.52-8.46-227.626-58.626-310.487-141.545-92.398-92.18-143.202-214.93-143.202-345.459-0.030-117.227 42.572-230.518 119.908-319.611l333.924 332.958-0.143 473.656zM192.071 73.079c89.251-77.316 202.472-119.893 319.648-119.733h0.185c130.499-0.088 253.078 50.677 345.301 142.787 83.047 83.164 133.125 193.323 141.517 310.81l-471.37 1.427-335.281-335.291z" />
<glyph unicode="&#xe91c;" glyph-name="youtube" d="M628 249.143v-120.571c0-25.714-7.429-38.286-22.286-38.286-8.571 0-17.143 4-25.714 12.571v172c8.571 8.571 17.143 12.571 25.714 12.571 14.857 0 22.286-13.143 22.286-38.286zM821.143 248.571v-26.286h-51.429v26.286c0 25.714 8.571 38.857 25.714 38.857s25.714-13.143 25.714-38.857zM269.143 373.143h61.143v53.714h-178.286v-53.714h60v-325.143h57.143v325.143zM433.714 48h50.857v282.286h-50.857v-216c-11.429-16-22.286-24-32.571-24-6.857 0-10.857 4-12 12-0.571 1.714-0.571 8-0.571 20v208h-50.857v-223.429c0-20 1.714-33.143 4.571-41.714 4.571-14.286 16.571-21.143 33.143-21.143 18.286 0 37.714 11.429 58.286 34.857v-30.857zM678.857 132.571v112.571c0 26.286-1.143 45.143-5.143 56.571-6.286 21.143-20.571 32-40.571 32-18.857 0-36.571-10.286-53.143-30.857v124h-50.857v-378.857h50.857v27.429c17.143-21.143 34.857-31.429 53.143-31.429 20 0 34.286 10.857 40.571 31.429 4 12 5.143 30.857 5.143 57.143zM872 138.286v7.429h-52c0-20.571-0.571-32-1.143-34.857-2.857-13.714-10.286-20.571-22.857-20.571-17.714 0-26.286 13.143-26.286 39.429v49.714h102.286v58.857c0 30.286-5.143 52-15.429 66.286-14.857 19.429-34.857 29.143-60.571 29.143-26.286 0-46.286-9.714-61.143-29.143-10.857-14.286-16-36-16-66.286v-98.857c0-30.286 5.714-52.571 16.571-66.286 14.857-19.429 34.857-29.143 61.714-29.143s48 10.286 61.714 30.286c6.286 9.143 10.857 19.429 12 30.857 1.143 5.143 1.143 16.571 1.143 33.143zM524.572 660v120c0 26.286-7.429 39.429-24.571 39.429-16.571 0-24.571-13.143-24.571-39.429v-120c0-26.286 8-40 24.571-40 17.143 0 24.571 13.714 24.571 40zM935.429 230.857c0-65.714-0.571-136-14.857-200-10.857-45.143-47.429-78.286-91.429-82.857-105.143-12-211.429-12-317.143-12s-212 0-317.143 12c-44 4.571-81.143 37.714-91.429 82.857-14.857 64-14.857 134.286-14.857 200v0c0 66.286 0.571 136 14.857 200 10.857 45.143 47.429 78.286 92 83.429 104.571 11.429 210.857 11.429 316.571 11.429s212 0 317.143-11.429c44-5.143 81.143-38.286 91.429-83.429 14.857-64 14.857-133.714 14.857-200zM365.143 960h58.286l-69.143-228v-154.857h-57.143v154.857c-5.143 28-16.571 68-34.857 121.143-12.571 35.429-25.143 71.429-37.143 106.857h60.571l40.571-150.286zM576.572 769.714v-100c0-30.286-5.143-53.143-16-67.429-14.286-19.429-34.286-29.143-60.571-29.143-25.714 0-45.714 9.714-60 29.143-10.857 14.857-16 37.143-16 67.429v100c0 30.286 5.143 52.571 16 66.857 14.286 19.429 34.286 29.143 60 29.143 26.286 0 46.286-9.714 60.571-29.143 10.857-14.286 16-36.571 16-66.857zM768 862.286v-285.143h-52v31.429c-20.571-24-40-35.429-58.857-35.429-16.571 0-28.571 6.857-33.714 21.143-2.857 8.571-4.571 22.286-4.571 42.857v225.143h52v-209.714c0-12 0-18.857 0.571-20 1.143-8 5.143-12.571 12-12.571 10.286 0 21.143 8 32.571 24.571v217.714h52z" />
<glyph unicode="&#xe91d;" glyph-name="filters" d="M347.309 201.126h681.009v-109.413h-681.009v109.413zM347.309 804.286v-109.413h681.009v109.413h-681.009zM347.309 393.298h681.009v109.406h-681.009v-109.406zM-4.321 255.958h219.087v-219.079h-219.087v219.079zM50.51 91.713h109.421v109.413h-109.421v-109.413zM-4.321 557.538h219.087v-219.074h-219.087v219.074zM50.51 393.298h109.421v109.406h-109.421v-109.406zM-4.321 859.12h219.087v-219.079h-219.087v219.079zM50.51 694.873h109.421v109.413h-109.421v-109.413z" />
<glyph unicode="&#xe91e;" glyph-name="comment" d="M927.015 150.235c-4.549-19.167-10.129-76.076 74.485-103.478 0 0-193.005-10.976-196.902 103.374h-277.538c-52.746 0-96.074 41.819-98.787 93.935h173.909c88.252 0 160.050 71.804 160.050 160.045v221.454h162.72c54.488 0 99.048-44.565 99.048-99.032v-277.364c0-53.766-43.458-97.805-96.985-98.934zM0 404.094v336.103c0 66.017 54.011 120.023 120.034 120.023h482.18c66.017 0 120.039-54.005 120.039-120.023v-336.103c0-66.017-54.021-120.034-120.039-120.034h-336.33c-4.739-138.565-238.628-125.261-238.628-125.261 102.538 33.215 95.802 102.169 90.265 125.402-64.851 1.363-117.52 54.721-117.52 119.892zM650.237 404.094v336.103c0 26.022-21.995 48.007-48.023 48.007h-482.18c-26.022 0-48.018-21.984-48.018-48.007v-336.103c0-26.006 21.995-48.007 48.018-48.007h482.18c26.028 0 48.023 22.001 48.023 48.007zM472.155 572.156c0-34.713 28.123-62.815 62.799-62.815 34.691 0 62.815 28.107 62.815 62.815 0 34.68-28.129 62.793-62.815 62.793-34.676 0-62.799-28.118-62.799-62.793zM121.266 572.156c0-34.713 28.129-62.815 62.799-62.815 34.691 0 62.815 28.107 62.815 62.815 0 34.68-28.129 62.793-62.815 62.793-34.676 0-62.799-28.118-62.799-62.793zM296.722 572.156c0-34.713 28.118-62.815 62.788-62.815s62.815 28.107 62.815 62.815c0 34.68-28.145 62.793-62.815 62.793s-62.788-28.118-62.788-62.793z" />
<glyph unicode="&#xe91f;" glyph-name="home" d="M879.244 367.017l-346.535 306.36c-12.217 10.792-32.19 10.792-44.397 0l-347.624-307.324c-12.212-10.792-22.676-20.675-24.129-21.956-1.453-1.287-1.93-14.827-1.93-30.090v-275.307c0-15.262 12.703-28.715 29.97-28.715h202.081c17.262 0 30.866 13.454 30.866 28.715v244.086c0 15.262 14.652 25.679 31.915 25.679h202.081c17.265 0 31.907-10.417 31.907-25.679v-244.086c0-15.262 13.612-28.715 30.872-28.715h202.094c17.261 0 29.954 13.454 29.954 28.715v275.306c0 15.262-0.71 29.024-2.469 30.568-1.749 1.552-12.458 11.651-24.665 22.44zM716.123 774.355l109.847-98.496c12.217-10.792 20.655-7.133 20.655 8.128v154.558c0 15.266-11.362 29.897-28.629 29.897h-93.022c-22.162 0-30.721-7.751-30.721-29.897v-16.812c-0.003-29.224 0.972-29.224 21.868-47.378zM998.991 465.003l-466.281 412.921c-12.217 10.79-32.19 10.79-44.397 0l-463.302-409.6c-12.214-10.797-12.214-28.457 0-39.247l38.231-33.799c12.206-10.795 32.18-10.795 44.394 0l380.674 336.546c12.206 10.79 32.18 10.79 44.397 0l383.66-339.866c12.206-10.795 32.18-10.795 44.394 0l38.228 33.799c12.212 10.795 12.212 28.457 0 39.247z" />
<glyph unicode="&#xe920;" glyph-name="arrow-tutorial" d="M400.871 64.038c-0.424 1.953 5.349 7.28 11.165 11.971 4.946 3.991 105.535 83.905 147.371 128.055 61.406 64.866 115.192 137.416 159.512 214.911 43.767 76.498 82.929 159.066 105.534 244.478 19.761 74.757 27.169 150.575 9.7 226.309-1.826 7.981-3.523 16.153-7.429 23.433-16.514 30.841-34.449 9.063-38.355-15.516-5.2-32.497-1.974-66.012-3.905-98.764-0.615-10.613-1.337-21.226-2.186-31.818-9.849-121.305-51.027-242.95-111.095-348.506-37.209-65.397-88.299-119.459-140.727-172.777-24.282-24.664-149.302-124.723-163.099-136.312 15.41 29.1 37.76 59.22 50.73 91.717 3.269 8.193 11.143 31.096 0.785 37.357-11.462 6.919-29.546-13.606-35.596-20.95-42.536-51.451-52.109-65.014-96.11-115.128-27.063-30.799-57.161-60.536-88.32-87.216-10.995-9.445-26.468-22.117-22.16-39.926 5.37-22.287 33.983-23.391 54.678-17.511 77.835 22.202 155.967 43.598 233.016 68.517 14.519 4.691 29.015 10.231 42.239 17.978 10.528 6.134 27.19 12.672 30.31 25.896 2.186 9.276-9.212 13.966-18.658 12.141-18.106-3.481-87.768-19.591-104.685-21.841-2.929-0.361-11.696-1.083-12.693 3.566z" />
<glyph unicode="&#xe921;" glyph-name="play" d="M511.985 960c-282.773 0-511.985-229.232-511.985-512.015 0-282.773 229.212-511.985 511.985-511.985 282.783 0 512.015 229.212 512.015 511.985 0 282.783-229.232 512.015-512.015 512.015zM511.985 31.988c-229.737 0-416.007 186.218-416.007 415.996 0 229.799 186.27 416.017 416.007 416.017 229.768 0 416.007-186.218 416.007-416.017 0-229.778-186.239-415.996-416.007-415.996zM352.001 191.982l447.989 256.003-447.989 256.013v-512.015z" />
<glyph unicode="&#xe926;" glyph-name="file" d="M917.806 730.924c-22.212 30.292-53.174 65.7-87.178 99.704s-69.412 64.964-99.704 87.178c-51.574 37.82-76.592 42.194-90.924 42.194h-496c-44.112 0-80-35.888-80-80v-864c0-44.112 35.888-80 80-80h736c44.112 0 80 35.888 80 80v624c0 14.332-4.372 39.35-42.194 90.924zM785.374 785.374c30.7-30.7 54.8-58.398 72.58-81.374h-153.954v153.946c22.984-17.78 50.678-41.878 81.374-72.572zM896 16c0-8.672-7.328-16-16-16h-736c-8.672 0-16 7.328-16 16v864c0 8.672 7.328 16 16 16 0 0 495.956 0.002 496 0v-224c0-17.672 14.326-32 32-32h224v-624zM736 128h-448c-17.672 0-32 14.326-32 32s14.328 32 32 32h448c17.674 0 32-14.326 32-32s-14.326-32-32-32zM736 256h-448c-17.672 0-32 14.326-32 32s14.328 32 32 32h448c17.674 0 32-14.326 32-32s-14.326-32-32-32zM736 384h-448c-17.672 0-32 14.326-32 32s14.328 32 32 32h448c17.674 0 32-14.326 32-32s-14.326-32-32-32z" />
<glyph unicode="&#xe96e;" glyph-name="bubble-comment" d="M512 768c-54.932 0-107.988-8.662-157.694-25.742-46.712-16.054-88.306-38.744-123.628-67.444-66.214-53.798-102.678-122.984-102.678-194.814 0-40.298 11.188-79.378 33.252-116.152 22.752-37.92 56.982-72.586 98.988-100.252 30.356-19.992 50.78-51.948 56.176-87.894 1.8-11.984 2.928-24.088 3.37-36.124 7.47 6.194 14.75 12.846 21.88 19.976 24.154 24.152 56.78 37.49 90.502 37.49 5.368 0 10.762-0.336 16.156-1.024 20.974-2.666 42.398-4.020 63.676-4.020 54.934 0 107.988 8.66 157.694 25.742 46.712 16.054 88.306 38.744 123.628 67.444 66.214 53.796 102.678 122.984 102.678 194.814s-36.464 141.016-102.678 194.814c-35.322 28.698-76.916 51.39-123.628 67.444-49.706 17.080-102.76 25.742-157.694 25.742zM512 896v0c282.77 0 512-186.25 512-416 0-229.752-229.23-416-512-416-27.156 0-53.81 1.734-79.824 5.044-109.978-109.978-241.25-129.7-368.176-132.596v26.916c68.536 33.578 128 94.74 128 164.636 0 9.754-0.758 19.33-2.164 28.696-115.796 76.264-189.836 192.754-189.836 323.304 0 229.75 229.23 416 512 416z" />
<glyph unicode="&#xe9ce;" glyph-name="eye" d="M512 768c-223.318 0-416.882-130.042-512-320 95.118-189.958 288.682-320 512-320 223.312 0 416.876 130.042 512 320-95.116 189.958-288.688 320-512 320zM764.45 598.296c60.162-38.374 111.142-89.774 149.434-150.296-38.292-60.522-89.274-111.922-149.436-150.296-75.594-48.218-162.89-73.704-252.448-73.704-89.56 0-176.858 25.486-252.452 73.704-60.158 38.372-111.138 89.772-149.432 150.296 38.292 60.524 89.274 111.924 149.434 150.296 3.918 2.5 7.876 4.922 11.86 7.3-9.96-27.328-15.41-56.822-15.41-87.596 0-141.382 114.616-256 256-256 141.382 0 256 114.618 256 256 0 30.774-5.452 60.268-15.408 87.598 3.978-2.378 7.938-4.802 11.858-7.302v0zM512 544c0-53.020-42.98-96-96-96s-96 42.98-96 96 42.98 96 96 96 96-42.982 96-96z" />
<glyph unicode="&#xe9d1;" glyph-name="eye-blocked" d="M945.942 945.942c-18.746 18.744-49.136 18.744-67.882 0l-202.164-202.164c-51.938 15.754-106.948 24.222-163.896 24.222-223.318 0-416.882-130.042-512-320 41.122-82.124 100.648-153.040 173.022-207.096l-158.962-158.962c-18.746-18.746-18.746-49.136 0-67.882 9.372-9.374 21.656-14.060 33.94-14.060s24.568 4.686 33.942 14.058l864 864c18.744 18.746 18.744 49.138 0 67.884zM416 640c42.24 0 78.082-27.294 90.92-65.196l-121.724-121.724c-37.902 12.838-65.196 48.68-65.196 90.92 0 53.020 42.98 96 96 96zM110.116 448c38.292 60.524 89.274 111.924 149.434 150.296 3.918 2.5 7.876 4.922 11.862 7.3-9.962-27.328-15.412-56.822-15.412-87.596 0-54.89 17.286-105.738 46.7-147.418l-60.924-60.924c-52.446 36.842-97.202 83.882-131.66 138.342zM768 518c0 27.166-4.256 53.334-12.102 77.898l-321.808-321.808c24.568-7.842 50.742-12.090 77.91-12.090 141.382 0 256 114.618 256 256zM830.026 670.026l-69.362-69.362c1.264-0.786 2.53-1.568 3.786-2.368 60.162-38.374 111.142-89.774 149.434-150.296-38.292-60.522-89.274-111.922-149.436-150.296-75.594-48.218-162.89-73.704-252.448-73.704-38.664 0-76.902 4.76-113.962 14.040l-76.894-76.894c59.718-21.462 123.95-33.146 190.856-33.146 223.31 0 416.876 130.042 512 320-45.022 89.916-112.118 166.396-193.974 222.026z" />
<glyph unicode="&#xe9d9;" glyph-name="star" d="M1024 562.95l-353.78 51.408-158.22 320.582-158.216-320.582-353.784-51.408 256-249.538-60.432-352.352 316.432 166.358 316.432-166.358-60.434 352.352 256.002 249.538z" />
<glyph unicode="&#xea8b;" glyph-name="google-plus" d="M325.8 502.6v-111.8h184.8c-7.4-48-55.8-140.6-184.8-140.6-111.2 0-202 92.2-202 205.8s90.8 205.8 202 205.8c63.4 0 105.6-27 129.8-50.2l88.4 85.2c-56.8 53-130.4 85.2-218.2 85.2-180.2-0.2-325.8-145.8-325.8-326s145.6-325.8 325.8-325.8c188 0 312.8 132.2 312.8 318.4 0 21.4-2.4 37.8-5.2 54h-307.6zM1024 512h-96v96h-96v-96h-96v-96h96v-96h96v96h96z" />
<glyph unicode="&#xea90;" glyph-name="facebook" d="M608 768h160v192h-160c-123.514 0-224-100.486-224-224v-96h-128v-192h128v-512h192v512h160l32 192h-192v96c0 17.346 14.654 32 32 32z" />
<glyph unicode="&#xea96;" glyph-name="twitter" d="M1024 733.6c-37.6-16.8-78.2-28-120.6-33 43.4 26 76.6 67.2 92.4 116.2-40.6-24-85.6-41.6-133.4-51-38.4 40.8-93 66.2-153.4 66.2-116 0-210-94-210-210 0-16.4 1.8-32.4 5.4-47.8-174.6 8.8-329.4 92.4-433 219.6-18-31-28.4-67.2-28.4-105.6 0-72.8 37-137.2 93.4-174.8-34.4 1-66.8 10.6-95.2 26.2 0-0.8 0-1.8 0-2.6 0-101.8 72.4-186.8 168.6-206-17.6-4.8-36.2-7.4-55.4-7.4-13.6 0-26.6 1.4-39.6 3.8 26.8-83.4 104.4-144.2 196.2-146-72-56.4-162.4-90-261-90-17 0-33.6 1-50.2 3 93.2-59.8 203.6-94.4 322.2-94.4 386.4 0 597.8 320.2 597.8 597.8 0 9.2-0.2 18.2-0.6 27.2 41 29.4 76.6 66.4 104.8 108.6z" />
<glyph unicode="&#xeaca;" glyph-name="linkedin" d="M364.308 595.692h204.354v-104.75h2.92c28.432 50.994 98.030 104.75 201.742 104.75 215.706 0 255.6-134.28 255.6-308.922v-355.69h-213.010v315.322c0 75.212-1.538 171.954-110.8 171.954-110.94 0-127.868-81.906-127.868-166.492v-320.784h-212.934v664.616zM-4.924 595.692h221.54v-664.616h-221.54v664.616zM216.616 780.308c0-61.175-49.593-110.768-110.768-110.768s-110.768 49.593-110.768 110.768c0 61.175 49.593 110.768 110.768 110.768s110.768-49.593 110.768-110.768z" />
</font>
</defs>
</svg>
